# xmcd CD database file
#
# Track frame offsets:
#	150
#	13137
#	25502
#	42382
#	59262
#	72787
#	84125
#	98210
#	111755
#	124785
#	135170
#	159525
#	171505
#	182160
#
# Disc length: 2627 seconds
#
# Revision: 2
# Processed by: cddbd v1.4PL0 Copyright (c) Steve Scherf et al.
# Submitted via: CDex 1.40Release
#
DISCID=af0a410e
DTITLE=Terry Smith - Texas Roots
DYEAR=1999
DGENRE=Bluegrass
TTITLE0=Texas Roots
TTITLE1=You Can Bet your Boots
TTITLE2=Trying Hard to Make It All Make Sense
TTITLE3=You Can't Miss It
TTITLE4=The Cowboy and the Lord
TTITLE5=Doing Ft. Worth in Style
TTITLE6=Country Trains
TTITLE7=Tecas Skies
TTITLE8=When You've Cried All You Can Cry
TTITLE9=Honky-Tonk Tradition
TTITLE10=From Ring Around the Rosey to Rings Around Our Fingers
TTITLE11=A Lotta Bull
TTITLE12=On the Texas Side of Arkansas
TTITLE13=I'll Love You as Long as Texas is Big
EXTD=YEAR: 1999 ID3G: 89
EXTT0=
EXTT1=
EXTT2=
EXTT3=
EXTT4=
EXTT5=
EXTT6=
EXTT7=
EXTT8=
EXTT9=
EXTT10=
EXTT11=
EXTT12=
EXTT13=
PLAYORDER=
